
<svg width="0px" height="0px" viewBox="0 0 615 208" version="1.1" xmlns="http://www.w3.org/2000/svg" xmlns:xlink="http://www.w3.org/1999/xlink">
    <!-- Generator: Sketch 48.2 (47327) - http://www.bohemiancoding.com/sketch -->
    <desc>Created with Sketch.</desc>
    <defs>
        <polygon id="logoTT" points="0 0.4760838 185.073 0.4760838 185.073 208 0 208"></polygon>
    </defs>
    <g id="logoTT" stroke="none" stroke-width="1" fill="none" fill-rule="evenodd">
        <g transform="translate(134.000000, 84.000000)" fill="#06776C">
            <polygon id="Path" points="292 10 291.941 61.517 327.072 61.52 327.072 77.083 274.23 77.083 274.059 10.044"></polygon>
            <polygon id="Path" points="212.8136 123.2502 212.8136 86.7302 177.6826 86.7302 177.6826 71.1692 230.5226 71.1692 230.7546 123.2092"></polygon>
            <polygon id="Path" points="181.7166 56.6602 181.7166 20.1412 146.5866 20.1392 146.5866 4.5772 199.4266 4.5772 199.6576 56.6162"></polygon>
            <polygon id="Path" points="61.6676 56.3372 35.8456 30.5162 11.0036 55.3552 -0.0004 44.3512 37.3616 6.9882 74.3216 43.6222"></polygon>
            <polygon id="Path" points="231.1966 40.2422 231.1966 63.5882 213.6886 63.5882 213.6886 0.0362 231.1966 0.0362 231.1966 24.6792 248.7036 24.6792 248.7036 40.2422"></polygon>
            <polygon id="Path" points="350.5085 53.563 350.5085 124 333.0005 124 332.99975 2 350.50775 2 350.5085 38 368.0155 38 368.0155 53.563"></polygon>
            <polygon id="Path" points="423.698 121.951 423.698 83.692 386.316 83.692 386.316 68.129 480.535 68.129 480.535 83.692 441.856 83.692 441.856 121.951"></polygon>
            <path d="M403.437,55.807 L403.437,4.577 L460.227,4.577 L460.227,55.807 L403.437,55.807 Z M420.944,40.243 L442.716,40.243 L442.716,20.142 L420.944,20.142 L420.944,40.243 Z" id="Combined-Shape"></path>
            <polygon id="Path" points="116.4072 64.8878 100.1972 64.8878 100.1972 38.9448 92.4152 38.9448 92.4152 59.7008 76.2002 59.7008 76.2002 1.3348 92.4152 1.3348 92.4152 23.3838 100.1972 23.3838 100.1972 0.0358 116.4072 0.0358"></polygon>
            <path d="M111.8692,94.8468 C111.8692,103.5378 108.6242,110.4088 102.4012,115.5968 C95.9152,120.6558 88.0052,123.2498 78.6682,123.2498 C69.3292,123.2498 61.5462,120.6558 55.3202,115.5968 C48.8362,110.4088 45.7232,103.5378 45.7232,94.8468 C45.7232,86.0268 48.8362,79.0238 55.3202,73.8358 C61.5462,68.7778 69.3292,66.1858 78.6682,66.1858 C88.0052,66.1858 95.9152,68.7778 102.4012,73.8358 C108.6242,79.0238 111.8692,86.0268 111.8692,94.8468 Z M94.3592,94.8468 C94.3592,90.6988 92.8022,87.4528 89.8172,85.1198 C86.7092,82.9148 82.9472,81.7458 78.7952,81.7458 C74.5152,81.7458 70.8842,82.9148 67.9042,85.1198 C64.7882,87.4528 63.2302,90.6988 63.2302,94.8468 C63.2302,98.9948 64.7882,102.1108 67.9042,104.3158 C70.8842,106.6488 74.5152,107.6848 78.7952,107.6848 C82.9472,107.6848 86.7092,106.6488 89.8172,104.3158 C92.8022,102.1108 94.3592,98.9948 94.3592,94.8468 Z" id="Combined-Shape"></path>
        </g>
        <g transform="translate(0.000000, -1.000000)">
            <path d="M1.9873,11.9449 C12.6453,44.7369 77.4113,60.3139 106.9253,58.6739 C129.8803,57.0339 143.8173,47.1959 159.3933,31.6209 C167.5923,23.4219 181.5283,15.2229 183.1693,2.9249" id="Fill-1" fill="#06776C"></path>
            <path d="M90.5293,29.9801 C88.8893,52.9351 87.7993,82.4161 91.0783,104.5511 C96.0573,100.8031 101.1853,93.1081 106.1053,89.8281 C106.9373,90.2491 107.6723,91.5921 108.4283,92.4861 C108.4283,92.4861 105.7103,97.6581 104.2633,100.0081 C102.7243,102.5131 101.1883,104.5781 99.7763,107.4031 C96.5003,113.9651 93.0163,120.7511 92.1683,127.5391 C88.8893,149.6751 92.9883,171.8101 89.7093,193.9481" id="Fill-3" fill="#06776C"></path>
            <path d="M79.8701,28.3404 C79.0501,64.4124 83.1491,101.3054 81.5121,137.3784 C80.6891,156.2344 81.5121,190.6664 70.0311,205.4234" id="Fill-5" fill="#06776C"></path>
            <g id="Group-9" transform="translate(0.000000, 0.524000)">
                <mask id="mask-2" fill="white">
                    <use xlink:href="#path-1"></use>
                </mask>
                <g id="Clip-8"></g>
                <path d="M181.2939,1.8857 C179.7629,11.3247 171.8409,17.6557 164.9629,23.5087 C157.7709,29.6287 151.3889,36.6177 143.8569,42.3457 C130.0109,52.8747 113.6329,57.0597 96.4169,56.1457 C94.7019,56.0547 92.9869,55.9267 91.2749,55.7727 L91.1559,51.5617 C91.4799,44.1607 91.9549,36.7807 92.4729,29.4557 C92.6479,26.9537 88.7609,26.9697 88.5849,29.4557 C87.9799,38.0367 87.4459,46.6807 87.1469,55.3397 C85.4049,55.1327 83.6669,54.8997 81.9329,54.6317 C81.7179,45.6967 81.6279,36.7587 81.8139,27.8167 C81.8649,25.3087 77.9789,25.3137 77.9259,27.8167 C77.7449,36.5417 77.8359,45.2637 78.0559,53.9847 C69.2039,52.4017 60.4629,50.0917 51.9899,47.2617 C37.6999,42.4897 23.1259,35.6767 12.5089,24.7187 C8.6919,20.7807 5.6219,16.1117 3.8599,10.9037 C3.0619,8.5417 -0.6921,9.5547 0.1119,11.9367 C4.4089,24.6487 15.1529,33.5747 26.3909,40.1527 C39.8589,48.0357 55.1059,52.9877 70.2839,56.3337 C72.8849,56.9067 75.5169,57.4427 78.1689,57.9227 C78.9119,83.2297 80.5689,108.5227 79.6909,133.8447 C79.2759,145.7967 79.1239,157.7827 78.0869,169.7007 C77.0869,181.1917 75.4989,194.4187 68.3549,203.9187 C66.8459,205.9247 70.2239,207.8577 71.7099,205.8817 C75.1379,201.3217 76.2289,199.5887 77.6849,194.0047 C77.6849,194.0047 81.7279,203.8207 82.7279,206.2267 C83.7279,208.6327 86.6649,207.3537 86.1029,204.8997 C85.5399,202.4457 84.6979,194.9537 83.7279,185.6017 C82.7569,176.2487 82.6329,160.3067 82.6329,160.3067 C83.0149,152.7637 83.1279,145.2027 83.4209,137.6597 C84.2159,117.2407 83.3889,96.8517 82.6329,76.4597 L82.6329,58.6707 C84.0939,58.8967 85.5589,59.0987 87.0279,59.2817 C86.6379,74.4297 87.0529,89.5997 89.2039,104.5427 C89.4369,106.1597 91.4639,106.1847 92.4519,105.4007 C97.4479,101.4367 100.9529,95.8547 105.9109,91.8777 C105.9809,91.9627 106.0499,92.0517 106.1199,92.1377 C103.5599,96.7987 100.5639,101.1987 98.0989,105.8987 C93.7539,114.1827 90.6989,122.2227 89.6509,131.5437 C87.3589,151.9377 90.9059,184.5297 88.0399,204.8997 C87.6949,207.3487 92.1879,207.9507 92.5359,205.4767 C93.3189,199.9077 94.2039,193.8887 94.4779,188.2267 C94.4779,188.2267 99.8229,204.4397 100.4869,206.4237 C101.4459,209.2887 105.3529,207.7267 104.8939,205.8517 C104.2599,203.2637 99.0859,186.6547 96.7279,171.5177 C94.3689,156.3807 93.4309,132.2837 93.4309,132.2837 C93.7159,129.3117 94.1439,126.3487 94.8449,123.4597 C96.0629,118.4497 98.5129,113.7647 100.7979,109.1747 C103.5759,103.5967 107.1949,98.4687 110.1059,92.9447 C110.4029,92.3817 110.5289,91.5297 110.1059,90.9817 C109.1479,89.7367 108.3369,88.5867 107.0869,87.6247 C106.5889,87.2427 105.6249,87.2677 105.1249,87.6247 C100.2519,91.1007 96.7619,96.0237 92.5119,100.1597 C92.4679,99.8097 92.1049,93.6837 92.0629,93.3337 L91.2279,77.8517 L91.3889,59.7527 C98.2379,60.3737 105.1219,60.4297 111.8819,59.5957 C130.2929,57.3237 145.0739,47.6227 158.1849,35.0127 C163.4219,29.9767 169.0229,25.3877 174.3219,20.4237 C179.3979,15.6677 183.9019,9.9477 185.0439,2.9187 C185.4399,0.4667 181.6949,-0.5843 181.2939,1.8857" id="Fill-7" fill="#231F20" mask="url(#mask-2)"></path>
            </g>
        </g>
    </g>
</svg>
