
<svg width="310px" height="184px" viewBox="0 0 310 184" version="1.1" xmlns="http://www.w3.org/2000/svg" xmlns:xlink="http://www.w3.org/1999/xlink">
    <!-- Generator: Sketch 48.2 (47327) - http://www.bohemiancoding.com/sketch -->
    <desc>Created with Sketch.</desc>
    <defs></defs>
    <g id="Page-1" stroke="none" stroke-width="1" fill="none" fill-rule="evenodd">
        <g>
            <path d="M309.5225,136.0705 C309.5165,133.9965 309.3155,131.9005 308.9785,129.8525 C305.8765,111.0165 292.1295,96.3945 273.5795,92.1285 C255.4835,87.9665 236.8105,95.2975 225.7445,110.7935 C225.0715,111.7355 223.7695,112.5615 222.6305,112.7885 C207.3685,115.8165 192.0805,118.7195 176.8015,121.6745 C170.1855,122.9535 163.5025,123.9835 156.9855,125.6555 C147.8575,127.9985 144.7325,138.8865 151.2625,145.5965 C153.2925,147.6815 156.3265,148.7865 159.5465,150.7295 L159.5465,156.1425 L175.0255,156.1425 C175.0255,153.6705 175.1175,151.3515 174.9945,149.0445 C174.9105,147.4745 175.4695,146.9015 177.0145,146.6155 C186.3415,144.8885 195.6465,143.0405 204.9625,141.2535 C209.0905,140.4615 213.2285,139.7205 217.6325,138.9065 L217.6325,183.5445 L309.4605,183.5445 C309.4995,182.7985 309.5465,182.3075 309.5465,181.8175 C309.5495,166.5685 309.5685,151.3185 309.5225,136.0705" id="Fill-1" fill="#7ED321"></path>
            <g id="Group-5" transform="translate(0.000000, 88.590000)"></g>
            <path d="M91.5059,128.8791 C88.2169,104.7361 66.8689,87.5481 42.2799,89.2111 C18.7929,90.7991 0.1019,110.9861 0.0259,134.9211 C-0.0241,150.3321 0.0129,165.7431 0.0209,181.1551 C0.0209,181.9501 0.1049,182.7451 0.1529,183.5901 L91.8009,183.5901 C91.8489,182.7381 91.9079,182.1671 91.9079,181.5951 C91.9129,165.9331 91.9239,150.2721 91.8929,134.6101 C91.8899,132.6981 91.7639,130.7731 91.5059,128.8791" id="Fill-3" fill="#F5A623"></path>
            <path d="M263.627,16.862 C277.931,16.963 289.245,28.408 289.181,42.71 C289.117,56.809 277.594,68.219 263.482,68.157 C249.23,68.093 237.776,56.52 237.909,42.315 C238.041,28.182 249.579,16.762 263.627,16.862 M263.721,83.155 C286.172,83.079 304.23,64.837 304.171,42.291 C304.114,19.996 285.786,1.774 263.514,1.867 C240.975,1.962 222.869,20.142 222.93,42.62 C222.989,65.094 241.24,83.231 263.721,83.155" id="Fill-6" fill="#7ED321"></path>
            <path d="M46.5928,14.9933 C60.8978,15.0243 72.2218,26.4403 72.1658,40.7743 C72.1118,54.9113 60.6768,66.2383 46.4888,66.2103 C32.2268,66.1813 20.7728,54.6423 20.8918,40.4203 C21.0098,26.2473 32.4158,14.9633 46.5928,14.9933 M46.7288,81.2053 C69.2048,81.1263 87.2178,62.9233 87.1568,40.3493 C87.0968,18.0243 68.8478,-0.0767 46.4758,0.0003 C23.9058,0.0773 5.8418,18.2163 5.9128,40.7263 C5.9858,63.2213 24.1988,81.2843 46.7288,81.2053" id="Fill-8" fill="#F5A623"></path>
            <polygon id="Fill-10" fill="#000000" points="101.297 183.511 207.798 183.511 207.798 171.431 101.297 171.431"></polygon>
            <polygon id="Fill-12" fill="#000000" points="116.925 169.45 132.255 169.45 132.255 157.644 116.925 157.644"></polygon>
            <polygon id="Fill-13" fill="#000000" points="180.197 169.384 195.415 169.384 195.415 157.611 180.197 157.611"></polygon>
        </g>
    </g>
</svg>
