
<svg width="185px" height="166px" viewBox="0 0 185 166" version="1.1" xmlns="http://www.w3.org/2000/svg" xmlns:xlink="http://www.w3.org/1999/xlink">
    <!-- Generator: Sketch 48.2 (47327) - http://www.bohemiancoding.com/sketch -->
    <desc>Created with Sketch.</desc>
    <defs>
        <polygon id="path-1" points="0.000282581388 0.465 184.354954 0.465 184.354954 165.9997 0.000282581388 165.9997"></polygon>
    </defs>
    <g id="Page-1" stroke="none" stroke-width="1" fill="none" fill-rule="evenodd">
        <g transform="translate(0.000000, -1.000000)">
            <g id="Group-7" transform="translate(0.000000, 0.535000)">
                <mask id="mask-2" fill="white">
                    <use xlink:href="#path-1"></use>
                </mask>
                <g id="Clip-6"></g>
            </g>
            <path d="M181.3605,90.5177 C180.4845,89.4737 179.4635,88.5987 178.3415,87.8957 C176.6475,86.8327 174.7195,86.1717 172.6705,85.9927 L164.2105,85.2527 L154.2105,84.3777 L154.2105,74.7407 L154.2105,16.9997 C154.2105,13.5337 153.0905,10.3307 151.2105,7.7077 C150.1855,6.2777 148.9335,5.0257 147.5025,3.9997 C144.8795,2.1197 141.6765,0.9997 138.2105,0.9997 L69.2095,0.9997 C65.7435,0.9997 62.5415,2.1197 59.9175,3.9997 C58.4875,5.0257 57.2355,6.2777 56.2095,7.7077 C54.3295,10.3307 53.2095,13.5337 53.2095,16.9997 L53.2095,46.5777 L53.2095,56.3927 L43.2095,58.5177 L10.1405,65.5477 C8.1285,65.9747 6.2945,66.8657 4.7425,68.1257 C3.7155,68.9607 2.8085,69.9527 2.0655,71.0957 C1.3235,72.2387 0.7855,73.4717 0.4405,74.7507 C-0.0795,76.6797 -0.1465,78.7167 0.2805,80.7287 L11.7575,134.7217 C12.1845,136.7327 13.0905,138.5467 14.3265,140.0737 C16.0185,142.1637 18.3375,143.7077 20.9625,144.4197 C22.0245,144.7077 23.1335,144.8617 24.2705,144.8617 C25.1645,144.8617 26.0625,144.7677 26.9385,144.5807 L80.9335,133.1047 C82.9735,132.6707 84.7875,131.7617 86.3065,130.5307 C88.4085,128.8267 89.9245,126.4927 90.6265,123.8797 C91.1335,121.9907 91.2255,119.9627 90.7925,117.9227 L89.5335,111.9997 L87.4075,101.9997 L93.3735,101.9997 L97.2215,101.9997 L103.0095,101.9997 L102.1355,111.9997 L101.3215,121.2907 L99.7805,138.9127 L99.0025,147.8067 C98.8235,149.8557 99.1395,151.8687 99.8905,153.7217 C100.3885,154.9487 101.0725,156.1077 101.9485,157.1517 C102.8235,158.1947 103.8455,159.0687 104.9675,159.7727 C106.6605,160.8347 108.5895,161.4947 110.6385,161.6747 L165.6295,166.4857 C166.0055,166.5187 166.3795,166.5347 166.7505,166.5347 C168.4605,166.5347 170.0895,166.2017 171.5795,165.6017 C174.0735,164.5957 176.1735,162.8297 177.5895,160.5667 C178.6355,158.8947 179.3115,156.9547 179.4945,154.8497 L184.3065,99.8587 C184.4845,97.8107 184.1685,95.7977 183.4175,93.9457 C182.9205,92.7197 182.2365,91.5617 181.3605,90.5177 Z" id="Path" fill="#FFFFFF"></path>
            <path d="M11.4705,71.8077 L43.2095,65.0607 L53.2095,62.9357 L56.2095,62.2977 L57.2095,62.0857 L61.2095,61.2347 L65.4635,60.3307 C66.7675,60.0537 68.0625,60.1957 69.2095,60.6647 C71.1045,61.4387 72.5975,63.1067 73.0545,65.2597 L77.4635,85.9997 L79.1635,93.9997 L80.0145,97.9997 L80.2265,98.9997 L80.8645,101.9997 L82.9895,111.9997 L84.5315,119.2537 C85.2665,122.7107 83.0595,126.1097 79.6025,126.8447 L25.6085,138.3207 C22.1505,139.0567 18.7525,136.8497 18.0175,133.3917 L6.5405,79.3987 C5.8055,75.9407 8.0125,72.5417 11.4705,71.8077 Z" id="Path" fill="#4A90E2"></path>
            <path d="M166.7505,160.1307 C166.5635,160.1307 166.3755,160.1267 166.1865,160.1097 L111.1955,155.2987 C107.6755,154.9907 105.0695,151.8867 105.3785,148.3647 L108.5605,111.9997 L109.4345,101.9997 L109.6965,98.9997 L109.7845,97.9997 L110.1345,93.9997 L110.1885,93.3757 C110.4975,89.8547 113.6015,87.2497 117.1225,87.5577 L145.1265,90.0077 L149.3735,90.3797 L151.2105,90.5397 L153.4925,90.7397 L164.2105,91.6777 L172.1125,92.3687 C175.6345,92.6767 178.2375,95.7807 177.9305,99.3017 L173.1185,154.2917 C172.8275,157.6237 170.0325,160.1307 166.7505,160.1307 Z" id="Path" fill="#7ED321"></path>
            <path d="M61.2095,44.8777 L61.2095,16.9997 C61.2095,12.5817 64.7925,8.9997 69.2095,8.9997 L138.2105,8.9997 C142.6285,8.9997 146.2105,12.5817 146.2105,16.9997 L146.2105,74.0407 L146.2105,83.6777 L138.2205,82.9787 L117.6795,81.1817 C115.5695,80.9987 113.5565,81.3367 111.7425,82.0677 C109.6715,82.9037 107.8665,84.2607 106.5015,85.9997 C106.2195,86.3597 105.9605,86.7367 105.7165,87.1267 C104.6765,88.7937 103.9965,90.7227 103.8125,92.8177 L103.7095,93.9997 L95.5215,93.9997 L94.0735,93.9997 L85.7075,93.9997 L84.0065,85.9997 L79.3145,63.9287 C78.8875,61.9187 77.9815,60.1047 76.7465,58.5777 C75.0535,56.4867 72.7345,54.9427 70.1085,54.2317 C69.8125,54.1517 69.5125,54.0877 69.2095,54.0277 C68.4255,53.8757 67.6215,53.7897 66.8015,53.7897 C65.9085,53.7897 65.0105,53.8837 64.1335,54.0707 L61.2095,54.6927 L61.2095,44.8777 Z" id="Path" fill="#FF001F"></path>
            <polygon id="Fill-8" fill="#FFFFFF" points="125.4878 104.8153 124.8588 112.0003 124.8148 112.5033 156.1458 115.2453 154.5018 124.1223 123.1128 121.3763 122.4608 128.8363 153.1608 131.5213 150.7998 144.6133 159.1208 145.3413 165.2688 116.0443 165.9428 108.3553 164.2108 108.2043"></polygon>
            <path d="M70.7759,113.7215 L70.4099,111.9995 L69.2179,106.3965 L43.2099,111.9245 L40.2019,112.5645 L38.7639,105.8025 L43.2099,104.8575 L62.8639,100.6805 L65.1329,100.1985 L64.8789,98.9995 L64.4569,97.0175 L63.5289,92.6495 L59.8059,93.4405 L56.2099,94.2045 L55.5809,94.3385 L43.2099,96.9675 L37.1599,98.2535 L35.7819,91.7735 L43.2099,90.1945 L53.3549,88.0375 L56.2099,87.4305 L57.2709,87.2045 L61.2289,86.3645 L63.6719,85.8445 L62.1159,78.5205 L61.2099,78.7135 L57.2099,79.5635 L56.2099,79.7765 L53.2099,80.4135 L43.2099,82.5395 L25.4359,86.3175 L32.9689,121.7575 L70.7759,113.7215 Z M94.6118,57.2225 C94.6118,50.8855 99.8688,47.2135 105.5568,47.2135 C111.6048,47.2135 116.4288,51.1015 116.4288,57.2225 L116.4288,60.5355 C116.4288,66.3665 112.3788,70.3355 106.0288,70.5255 L102.5778,70.2235 C97.7518,69.1735 94.6118,65.5415 94.6118,60.5355 L94.6118,57.2225 Z M88.5638,46.2055 C87.5698,47.1505 86.7298,48.2095 86.0328,49.3605 C84.6578,51.6315 83.8828,54.2845 83.8828,57.2945 L83.8828,60.1745 C83.8828,66.8085 86.7308,72.1085 91.5788,75.4515 C92.7708,76.2735 94.0908,76.9665 95.5128,77.5415 C98.4778,78.7405 101.9018,79.4005 105.7008,79.4005 C113.4308,79.4005 119.6558,76.6945 123.4368,72.0485 C125.9958,68.9055 127.4468,64.8825 127.4468,60.1745 L127.4468,57.2225 C127.4468,52.7575 125.6458,49.0135 122.7668,46.2055 L132.6318,46.2055 L132.6318,36.1245 L112.4698,36.1245 L112.4698,26.6195 L99.0048,26.6195 L99.0048,36.1245 L77.9788,36.1245 L77.9788,41.3135 L77.9788,46.2055 L85.3618,46.2055 L88.5638,46.2055 Z" id="Fill-1" fill="#FFFFFF"></path>
        </g>
    </g>
</svg>
