
<svg width="505px" height="483px" viewBox="0 0 505 483" version="1.1" xmlns="http://www.w3.org/2000/svg" xmlns:xlink="http://www.w3.org/1999/xlink">
    <!-- Generator: Sketch 48.2 (47327) - http://www.bohemiancoding.com/sketch -->
    <desc>Created with Sketch.</desc>
    <defs>
        <polygon id="path-1" points="6.70974539e-05 0.473 504.786 0.473 504.786 483 6.70974539e-05 483"></polygon>
        <polygon id="path-3" points="0.310697209 0.473 224.924492 0.473 224.924492 194.711726 0.310697209 194.711726"></polygon>
        <polygon id="path-5" points="0 0.649180811 222.40059 0.649180811 222.40059 106.987753 0 106.987753"></polygon>
        <polygon id="path-7" points="0.240117228 0.938807631 228.786 0.938807631 228.786 107 0.240117228 107"></polygon>
    </defs>
    <g id="Page-1" stroke="none" stroke-width="1" fill="none" fill-rule="evenodd">
        <g transform="translate(0.000000, -1.000000)">
            <g id="Group-3" transform="translate(0.000000, 0.527000)">
                <mask id="mask-2" fill="white">
                    <use xlink:href="#path-1"></use>
                </mask>
                <g id="Clip-2"></g>
                <path d="M492.6738,460.9707 C475.8338,469.9807 457.8608,474.9257 439.3568,478.3847 C396.8738,486.3267 354.8908,483.9727 313.4638,471.6827 C302.0728,468.3037 291.4248,463.3477 281.4648,456.8427 C278.1158,454.6567 276.1768,452.1107 276.3718,447.8937 C276.5878,443.2427 276.3868,438.5697 276.2548,433.9087 C275.9768,424.1067 279.7358,416.0877 286.9258,409.6007 C302.9688,395.1257 321.9158,385.5987 341.6538,377.3657 C344.6718,376.1087 345.3888,377.8547 346.6148,379.6857 C359.8738,399.4797 375.1268,417.7397 390.2978,436.7237 C394.4088,431.6027 398.3648,426.7067 402.2878,421.7857 C413.3898,407.8557 424.5738,393.9847 434.3468,379.0637 C435.6878,377.0157 436.8168,376.5747 439.1668,377.4547 C450.1138,381.5517 460.2018,387.3017 470.3438,393.0087 C477.6158,397.1017 484.4038,401.8037 490.8938,407.0257 C500.0528,414.3967 504.9728,423.6767 504.4778,435.5927 C504.4148,437.0897 504.2418,438.6217 504.4708,440.0837 C506.0488,450.2007 501.6518,456.1667 492.6738,460.9707 M226.2208,154.0707 C198.2458,153.6957 170.2638,153.8167 142.2858,153.5777 C138.6108,153.5477 136.0058,154.9227 133.5208,157.4217 C122.1308,168.8787 110.6518,180.2477 99.1788,191.6227 C97.5808,193.2077 96.1578,195.6207 93.3558,194.3597 C90.5838,193.1127 91.4338,190.4047 91.4318,188.1737 C91.4018,164.1907 91.4128,140.2067 91.4128,116.2237 C91.4258,93.4077 91.2158,70.5877 91.4838,47.7737 C91.7618,23.9967 106.5198,6.3087 129.6488,1.2507 C133.2718,0.4587 136.9338,0.4707 140.5848,0.4727 C182.8878,0.4967 225.1928,0.7927 267.4928,0.5457 C293.3198,0.3947 316.1138,21.3677 315.9228,48.2867 C315.8148,63.6107 316.5948,78.9357 311.5978,93.7647 C299.2928,130.2827 264.6678,154.5847 226.2208,154.0707 M209.8268,462.2427 C192.1748,471.5397 173.2028,476.1717 153.8058,479.4067 C113.0258,486.2087 72.8708,483.2987 33.4308,470.8627 C24.5118,468.0507 16.1328,464.0917 8.1428,459.1807 C3.5548,456.3617 1.5108,452.3727 0.8558,447.3647 C0.6618,445.8857 0.9198,444.3427 0.6808,442.8757 C-3.4402,417.5707 11.7038,404.2367 31.1258,393.3247 C40.6888,387.9527 50.2668,382.6747 60.2758,378.1507 C64.5748,376.2067 67.0068,376.4347 69.8568,380.8417 C78.3588,393.9887 88.2238,406.1747 98.0188,418.3857 C98.7228,419.2647 99.5118,420.0747 100.9988,421.7437 C102.3078,414.6837 103.3478,408.8117 104.4988,402.9627 C105.1438,399.6827 104.9418,396.5937 102.5448,394.0897 C98.6738,390.0487 101.7078,386.2697 103.0398,382.6047 C104.1818,379.4617 107.3648,381.0737 109.6628,380.7257 C110.9658,380.5277 112.3498,380.5207 113.6498,380.7287 C115.9468,381.0947 119.1508,379.4517 120.2958,382.5697 C121.6488,386.2487 124.5438,390.0797 120.7168,394.1067 C118.1718,396.7837 118.1898,400.0037 118.9198,403.4527 C120.1128,409.0937 121.0478,414.7887 122.3288,421.7537 C130.4928,411.1997 137.9388,401.6917 145.2428,392.0757 C148.4628,387.8377 151.5618,383.4857 154.3878,378.9787 C155.9658,376.4637 157.4978,376.1687 160.1148,377.2217 C170.7898,381.5217 180.8598,386.9777 190.7888,392.7427 C197.9978,396.9307 204.7488,401.7167 211.0588,407.1687 C218.4198,413.5287 222.3168,421.4497 222.3668,431.2017 C222.3858,434.6997 222.0448,438.2187 222.3168,441.6917 C223.0918,451.6237 218.4848,457.6837 209.8268,462.2427 M58.8088,292.1287 C58.9878,290.5687 60.2468,288.7747 62.0468,288.6727 C67.8018,288.3497 67.1258,284.4687 66.2758,280.9327 C64.5408,273.7157 64.4028,266.4097 64.5478,259.0867 C64.6968,251.4647 66.1188,244.4917 74.4368,241.1997 C76.7118,240.2997 78.6188,238.4557 79.8568,236.1817 C83.4678,229.5537 89.5798,226.8327 96.5788,225.7957 C101.1788,225.1157 105.8548,224.9497 108.7698,224.7017 C120.7838,224.7717 130.6928,226.6267 140.1418,230.6897 C156.4218,237.6877 163.0808,252.0427 159.1778,271.5567 C158.5908,274.4897 157.9668,277.4177 157.5518,280.3757 C157.0208,284.1587 155.6318,288.2127 161.7908,289.1817 C163.7718,289.4927 164.6568,292.3107 164.6198,294.6057 C164.4588,304.6317 164.7468,314.7967 155.1058,321.5407 C152.8488,323.1177 152.0928,325.7437 151.3968,328.4057 C146.5068,347.0957 128.1168,362.4917 110.6348,361.6507 C96.5988,360.9757 85.9348,353.5187 77.9578,342.2027 C76.1528,339.6427 74.6758,336.7827 73.4748,333.8817 C70.9768,327.8527 68.6248,322.2567 63.6078,317.2367 C57.0618,310.6867 57.7938,301.0097 58.8088,292.1287 M320.0188,1.5407 C341.8418,1.4047 363.6668,1.1917 385.4908,1.2567 C410.9088,1.3317 431.4998,17.3317 437.8498,41.6807 C438.9448,45.8807 439.4238,50.1797 439.4248,54.5287 C439.4368,97.3457 439.4628,140.1637 439.4588,182.9817 C439.4578,190.3867 436.5508,195.3087 430.9708,197.4657 C424.7008,199.8897 419.7318,197.7517 415.2318,193.1907 C405.5198,183.3477 395.6078,173.7027 385.8908,163.8657 C383.8658,161.8167 381.8008,160.8687 378.8858,160.9067 C356.2358,161.2087 333.5778,160.1957 310.9308,161.4357 C301.4458,161.9547 292.0498,161.1967 282.0108,158.3577 C290.0618,153.2277 297.1168,148.0027 303.2678,141.6757 C304.3488,140.5647 305.7238,140.8417 307.0278,140.7937 C332.6788,139.8557 358.3368,140.5927 383.9908,140.4107 C389.5218,140.3717 393.9288,142.5577 397.7018,146.4797 C404.2328,153.2637 410.8608,159.9537 417.4478,166.6837 C417.8408,166.4747 418.2318,166.2657 418.6238,166.0567 L418.6238,160.7967 C418.6278,125.4767 418.6958,90.1557 418.6068,54.8347 C418.5578,35.5287 404.3418,21.7237 384.8568,21.7927 C367.8628,21.8527 350.8688,21.8777 333.8768,22.0987 C330.8038,22.1387 329.0278,21.2997 327.7678,18.3887 C325.1738,12.4057 321.1328,7.3167 316.8228,2.5097 C317.6768,0.9797 318.9868,1.5467 320.0188,1.5407 M415.1338,388.7517 C407.4928,399.2067 399.8238,409.6407 392.0958,420.0307 C391.2268,421.1987 390.4928,423.9977 388.3438,420.9697 C380.1068,409.3587 371.8248,397.7807 362.8718,385.2237 C381.3648,389.7317 398.7588,389.7687 416.0398,385.5747 C416.9808,387.2207 415.7268,387.9417 415.1338,388.7517 M450.8338,288.3347 C452.3798,300.8597 457.4448,311.9607 464.3358,322.3037 C466.8358,326.0577 466.4218,329.1727 464.0598,332.7997 C452.1128,351.1347 434.4998,360.2717 413.3438,364.8477 C414.4308,361.5257 416.5178,359.5467 418.0598,357.2417 C433.5748,334.0317 437.3708,309.1667 428.4758,282.5947 C426.1158,275.5457 424.7738,275.2657 418.5128,278.9627 C405.5318,286.6267 390.8528,289.1527 376.5098,292.6537 C370.3768,294.1517 364.1618,295.3137 358.0068,296.7267 C350.6198,298.4237 348.2928,301.4127 348.3678,308.9107 C348.5788,329.5767 354.7578,348.1177 367.9908,364.5107 C345.8328,360.4077 327.2418,350.7547 315.3778,330.6477 C313.9328,328.1997 314.1608,325.8147 315.6218,323.5897 C326.3268,307.2817 332.4448,289.1477 338.1978,270.6337 C346.6028,243.5947 367.1868,230.5007 396.2278,231.8327 C422.2368,233.0267 441.8718,249.4797 448.3478,275.6167 C449.3858,279.8057 450.3068,284.0567 450.8338,288.3347" id="Fill-1" fill="#FDFEFE" mask="url(#mask-2)"></path>
            </g>
            <g id="Group-6" transform="translate(91.000000, 0.527000)">
                <mask id="mask-4" fill="white">
                    <use xlink:href="#path-3"></use>
                </mask>
                <g id="Clip-5"></g>
                <path d="M175.9443,100.6963 C164.0903,100.7403 154.4853,91.3083 154.4823,79.6203 C154.4793,67.4803 163.8793,58.0293 175.9813,58.0063 C187.3373,57.9853 197.1983,68.1113 197.0773,79.6703 C196.9593,91.0753 187.3323,100.6533 175.9443,100.6963 M113.2633,100.6663 C101.3833,100.7083 91.7703,91.3773 91.6553,79.6933 C91.5403,67.9253 100.9913,58.1863 112.6523,58.0593 C124.4823,57.9313 134.3153,67.7123 134.3193,79.6133 C134.3233,90.9833 124.6793,100.6263 113.2633,100.6663 M46.8743,100.6893 C35.3473,100.5583 25.2263,90.4893 26.0693,78.9833 C27.0323,65.8123 34.0473,58.6293 47.3013,58.0923 C58.8813,57.6223 68.6213,67.7283 68.5523,79.3453 C68.4813,91.4553 58.9633,100.8263 46.8743,100.6893 M220.5973,93.7643 C225.5943,78.9353 224.8143,63.6103 224.9233,48.2873 C225.1143,21.3683 202.3203,0.3943 176.4933,0.5463 C134.1923,0.7933 91.8883,0.4973 49.5853,0.4723 C45.9333,0.4703 42.2713,0.4593 38.6483,1.2513 C15.5203,6.3083 0.7613,23.9973 0.4833,47.7733 C0.2163,70.5883 0.4253,93.4073 0.4193,116.2233 C0.4133,140.2073 0.4023,164.1903 0.4313,188.1743 C0.4343,190.4043 -0.4157,193.1123 2.3553,194.3593 C5.1573,195.6213 6.5803,193.2083 8.1793,191.6223 C19.6513,180.2483 31.1313,168.8793 42.5203,157.4223 C45.0053,154.9233 47.6113,153.5483 51.2853,153.5783 C79.2633,153.8163 107.2453,153.6953 135.2203,154.0703 C173.6683,154.5853 208.2933,130.2823 220.5973,93.7643" id="Fill-4" fill="#229ED7" mask="url(#mask-4)"></path>
            </g>
            <g id="Group-9" transform="translate(0.000000, 376.527000)">
                <mask id="mask-6" fill="white">
                    <use xlink:href="#path-5"></use>
                </mask>
                <g id="Clip-8"></g>
                <path d="M222.3672,55.2021 C222.3162,45.4501 218.4202,37.5281 211.0582,31.1691 C204.7482,25.7171 197.9982,20.9311 190.7882,16.7431 C180.8592,10.9771 170.7902,5.5211 160.1152,1.2221 C157.4982,0.1691 155.9662,0.4641 154.3882,2.9781 C151.5612,7.4851 148.4632,11.8381 145.2422,16.0761 C137.9392,25.6911 130.4922,35.1991 122.3292,45.7541 C121.0472,38.7891 120.1132,33.0941 118.9192,27.4531 C118.1902,24.0041 118.1722,20.7841 120.7172,18.1061 C124.5442,14.0801 121.6482,10.2491 120.2962,6.5691 C119.1502,3.4521 115.9472,5.0951 113.6502,4.7281 C112.3502,4.5201 110.9652,4.5271 109.6622,4.7251 C107.3652,5.0731 104.1822,3.4621 103.0402,6.6041 C101.7082,10.2691 98.6742,14.0491 102.5442,18.0901 C104.9412,20.5941 105.1432,23.6821 104.4982,26.9631 C103.3472,32.8111 102.3072,38.6831 100.9982,45.7441 C99.5122,44.0741 98.7222,43.2641 98.0192,42.3861 C88.2242,30.1751 78.3592,17.9881 69.8572,4.8421 C67.0072,0.4341 64.5752,0.2071 60.2752,2.1501 C50.2672,6.6751 40.6892,11.9531 31.1252,17.3251 C11.7042,28.2361 -3.4398,41.5701 0.6802,66.8761 C0.9192,68.3431 0.6622,69.8861 0.8562,71.3641 C1.5112,76.3731 3.5552,80.3611 8.1422,83.1811 C16.1332,88.0921 24.5122,92.0511 33.4312,94.8621 C72.8712,107.2991 113.0262,110.2091 153.8052,103.4061 C173.2022,100.1721 192.1752,95.5401 209.8262,86.2431 C218.4842,81.6831 223.0922,75.6241 222.3162,65.6911 C222.0452,62.2191 222.3862,58.7001 222.3672,55.2021" id="Fill-7" fill="#4D4E54" mask="url(#mask-6)"></path>
            </g>
            <g id="Group-12" transform="translate(276.000000, 376.527000)">
                <mask id="mask-8" fill="white">
                    <use xlink:href="#path-7"></use>
                </mask>
                <g id="Clip-11"></g>
                <path d="M228.4775,59.5928 C228.9725,47.6768 224.0525,38.3968 214.8935,31.0258 C208.4045,25.8038 201.6165,21.1018 194.3435,17.0088 C184.2025,11.3018 174.1145,5.5518 163.1665,1.4548 C160.8165,0.5748 159.6875,1.0158 158.3465,3.0638 C148.5745,17.9848 137.3895,31.8558 126.2885,45.7858 C122.3655,50.7068 118.4095,55.6028 114.2975,60.7238 C99.1265,41.7388 83.8735,23.4798 70.6155,3.6858 C69.3885,1.8548 68.6715,0.1088 65.6545,1.3648 C45.9155,9.5988 26.9685,19.1258 10.9255,33.6008 C3.7355,40.0878 -0.0235,48.1068 0.2545,57.9078 C0.3865,62.5698 0.5875,67.2428 0.3725,71.8938 C0.1765,76.1108 2.1165,78.6558 5.4645,80.8428 C15.4245,87.3478 26.0735,92.3038 37.4635,95.6828 C78.8905,107.9728 120.8735,110.3268 163.3565,102.3848 C181.8605,98.9258 199.8335,93.9808 216.6735,84.9708 C225.6515,80.1668 230.0485,74.2008 228.4705,64.0838 C228.2425,62.6218 228.4155,61.0898 228.4775,59.5928" id="Fill-10" fill="#4D4E54" mask="url(#mask-8)"></path>
            </g>
            <path d="M73.4751,334.4088 C74.6761,337.3088 76.1531,340.1698 77.9571,342.7298 C85.9341,354.0458 96.5991,361.5028 110.6351,362.1778 C128.1171,363.0178 146.5071,347.6228 151.3961,328.9318 C152.0931,326.2708 152.8491,323.6448 155.1051,322.0678 C164.7471,315.3238 164.4591,305.1588 164.6201,295.1328 C164.6571,292.8378 163.7711,290.0198 161.7911,289.7088 C155.6321,288.7398 157.0201,284.6858 157.5521,280.9028 C157.9671,277.9448 158.5911,275.0158 159.1781,272.0838 C163.0801,252.5698 156.4221,238.2148 140.1421,231.2168 C130.6921,227.1538 120.7841,225.2988 108.7701,225.2288 C105.8551,225.4768 101.1791,225.6418 96.5791,226.3228 C89.5801,227.3598 83.4681,230.0798 79.8561,236.7088 C78.6191,238.9828 76.7121,240.8268 74.4371,241.7268 C66.1191,245.0178 64.6971,251.9918 64.5471,259.6138 C64.4031,266.9368 64.5401,274.2428 66.2751,281.4598 C67.1261,284.9958 67.8021,288.8768 62.0461,289.1998 C60.2461,289.3018 58.9881,291.0958 58.8091,292.6558 C57.7941,301.5368 57.0611,311.2138 63.6081,317.7628 C68.6251,322.7838 70.9771,328.3798 73.4751,334.4088" id="Fill-13" fill="#4D4E54"></path>
            <path d="M396.2275,232.36 C367.1865,231.027 346.6025,244.122 338.1985,271.161 C332.4445,289.674 326.3275,307.808 315.6225,324.117 C314.1615,326.341 313.9325,328.727 315.3775,331.174 C327.2425,351.282 345.8325,360.935 367.9915,365.038 C354.7575,348.645 348.5795,330.104 348.3685,309.438 C348.2925,301.94 350.6205,298.951 358.0065,297.254 C364.1625,295.84 370.3765,294.678 376.5095,293.18 C390.8525,289.679 405.5325,287.154 418.5125,279.49 C424.7735,275.793 426.1165,276.073 428.4755,283.122 C437.3715,309.694 433.5755,334.558 418.0595,357.768 C416.5175,360.074 414.4305,362.052 413.3435,365.375 C434.4995,360.798 452.1135,351.662 464.0595,333.327 C466.4215,329.7 466.8355,326.585 464.3355,322.831 C457.4455,312.488 452.3795,301.386 450.8335,288.862 C450.3065,284.584 449.3855,280.333 448.3475,276.143 C441.8725,250.006 422.2375,233.553 396.2275,232.36" id="Fill-15" fill="#4D4E54"></path>
            <path d="M333.877,22.6256 C350.869,22.4046 367.863,22.3796 384.856,22.3196 C404.342,22.2506 418.558,36.0556 418.606,55.3616 C418.696,90.6826 418.628,126.0036 418.624,161.3236 L418.624,166.5836 C418.231,166.7926 417.841,167.0016 417.448,167.2106 C410.86,160.4806 404.232,153.7906 397.702,147.0066 C393.929,143.0846 389.522,140.8986 383.991,140.9386 C358.337,141.1196 332.679,140.3826 307.028,141.3206 C305.724,141.3686 304.349,141.0916 303.268,142.2026 C297.117,148.5296 290.062,153.7546 282.011,158.8846 C292.05,161.7236 301.446,162.4816 310.931,161.9626 C333.578,160.7226 356.235,161.7356 378.886,161.4336 C381.801,161.3956 383.866,162.3436 385.891,164.3926 C395.607,174.2296 405.52,183.8756 415.231,193.7176 C419.731,198.2786 424.701,200.4166 430.971,197.9926 C436.551,195.8356 439.458,190.9136 439.459,183.5086 C439.463,140.6906 439.437,97.8736 439.425,55.0556 C439.424,50.7076 438.945,46.4076 437.85,42.2086 C431.5,17.8586 410.909,1.8586 385.491,1.7836 C363.667,1.7186 341.842,1.9316 320.019,2.0676 C318.986,2.0736 317.677,1.5066 316.823,3.0366 C321.133,7.8436 325.174,12.9326 327.768,18.9166 C329.028,21.8266 330.804,22.6656 333.877,22.6256" id="Fill-17" fill="#229ED7"></path>
            <path d="M362.8721,385.7506 C371.8251,398.3076 380.1061,409.8856 388.3441,421.4966 C390.4931,424.5246 391.2261,421.7256 392.0961,420.5576 C399.8241,410.1676 407.4931,399.7336 415.1341,389.2786 C415.7261,388.4686 416.9801,387.7476 416.0401,386.1026 C398.7591,390.2956 381.3651,390.2586 362.8721,385.7506" id="Fill-19" fill="#4D4E54"></path>
            <path d="M138.3018,58.6193 C125.0478,59.1563 118.0328,66.3393 117.0688,79.5103 C116.2258,91.0163 126.3478,101.0853 137.8738,101.2163 C149.9638,101.3533 159.4818,91.9823 159.5528,79.8723 C159.6208,68.2553 149.8818,58.1493 138.3018,58.6193" id="Fill-21" fill="#FDFEFE"></path>
            <path d="M203.6523,58.5861 C191.9913,58.7131 182.5403,68.4521 182.6553,80.2201 C182.7703,91.9041 192.3833,101.2351 204.2633,101.1931 C215.6793,101.1531 225.3233,91.5101 225.3193,80.1401 C225.3153,68.2391 215.4823,58.4581 203.6523,58.5861" id="Fill-23" fill="#FDFEFE"></path>
            <path d="M266.9814,58.5333 C254.8784,58.5563 245.4794,68.0073 245.4814,80.1473 C245.4844,91.8353 255.0894,101.2673 266.9444,101.2233 C278.3324,101.1803 287.9594,91.6023 288.0774,80.1973 C288.1984,68.6383 278.3364,58.5123 266.9814,58.5333" id="Fill-25" fill="#FDFEFE"></path>
        </g>
    </g>
</svg>
