
<svg width="349px" height="198px" viewBox="0 0 349 198" version="1.1" xmlns="http://www.w3.org/2000/svg" xmlns:xlink="http://www.w3.org/1999/xlink">
    <!-- Generator: Sketch 48.2 (47327) - http://www.bohemiancoding.com/sketch -->
    <desc>Created with Sketch.</desc>
    <defs>
        <polygon id="path-1" points="0.310697209 0.473 224.924492 0.473 224.924492 194.711726 0.310697209 194.711726"></polygon>
    </defs>
    <g id="Page-1" stroke="none" stroke-width="1" fill="none" fill-rule="evenodd">
        <g id="havruta" transform="translate(0.000000, -1.000000)">
            <g id="Group-6" transform="translate(0.000000, 0.527000)">
                <g id="Fill-4-Clipped">
                    <mask id="mask-2" fill="white">
                        <use xlink:href="#path-1"></use>
                    </mask>
                    <g id="path-3"></g>
                    <path d="M175.9443,100.6963 C164.0903,100.7403 154.4853,91.3083 154.4823,79.6203 C154.4793,67.4803 163.8793,58.0293 175.9813,58.0063 C187.3373,57.9853 197.1983,68.1113 197.0773,79.6703 C196.9593,91.0753 187.3323,100.6533 175.9443,100.6963 M113.2633,100.6663 C101.3833,100.7083 91.7703,91.3773 91.6553,79.6933 C91.5403,67.9253 100.9913,58.1863 112.6523,58.0593 C124.4823,57.9313 134.3153,67.7123 134.3193,79.6133 C134.3233,90.9833 124.6793,100.6263 113.2633,100.6663 M46.8743,100.6893 C35.3473,100.5583 25.2263,90.4893 26.0693,78.9833 C27.0323,65.8123 34.0473,58.6293 47.3013,58.0923 C58.8813,57.6223 68.6213,67.7283 68.5523,79.3453 C68.4813,91.4553 58.9633,100.8263 46.8743,100.6893 M220.5973,93.7643 C225.5943,78.9353 224.8143,63.6103 224.9233,48.2873 C225.1143,21.3683 202.3203,0.3943 176.4933,0.5463 C134.1923,0.7933 91.8883,0.4973 49.5853,0.4723 C45.9333,0.4703 42.2713,0.4593 38.6483,1.2513 C15.5203,6.3083 0.7613,23.9973 0.4833,47.7733 C0.2163,70.5883 0.4253,93.4073 0.4193,116.2233 C0.4133,140.2073 0.4023,164.1903 0.4313,188.1743 C0.4343,190.4043 -0.4157,193.1123 2.3553,194.3593 C5.1573,195.6213 6.5803,193.2083 8.1793,191.6223 C19.6513,180.2483 31.1313,168.8793 42.5203,157.4223 C45.0053,154.9233 47.6113,153.5483 51.2853,153.5783 C79.2633,153.8163 107.2453,153.6953 135.2203,154.0703 C173.6683,154.5853 208.2933,130.2823 220.5973,93.7643" id="Fill-4" fill="#229ED7" fill-rule="nonzero" mask="url(#mask-2)"></path>
                </g>
            </g>
            <path d="M242.877,22.6256 C259.869,22.4046 276.863,22.3796 293.856,22.3196 C313.342,22.2506 327.558,36.0556 327.606,55.3616 C327.696,90.6826 327.628,126.0036 327.624,161.3236 L327.624,166.5836 C327.231,166.7926 326.841,167.0016 326.448,167.2106 C319.86,160.4806 313.232,153.7906 306.702,147.0066 C302.929,143.0846 298.522,140.8986 292.991,140.9386 C267.337,141.1196 241.679,140.3826 216.028,141.3206 C214.724,141.3686 213.349,141.0916 212.268,142.2026 C206.117,148.5296 199.062,153.7546 191.011,158.8846 C201.05,161.7236 210.446,162.4816 219.931,161.9626 C242.578,160.7226 265.235,161.7356 287.886,161.4336 C290.801,161.3956 292.866,162.3436 294.891,164.3926 C304.607,174.2296 314.52,183.8756 324.231,193.7176 C328.731,198.2786 333.701,200.4166 339.971,197.9926 C345.551,195.8356 348.458,190.9136 348.459,183.5086 C348.463,140.6906 348.437,97.8736 348.425,55.0556 C348.424,50.7076 347.945,46.4076 346.85,42.2086 C340.5,17.8586 319.909,1.8586 294.491,1.7836 C272.667,1.7186 250.842,1.9316 229.019,2.0676 C227.986,2.0736 226.677,1.5066 225.823,3.0366 C230.133,7.8436 234.174,12.9326 236.768,18.9166 C238.028,21.8266 239.804,22.6656 242.877,22.6256" id="Fill-17" fill="#229ED7" fill-rule="nonzero"></path>
            <path d="M47.3018,58.6193 C34.0478,59.1563 27.0328,66.3393 26.0688,79.5103 C25.2258,91.0163 35.3478,101.0853 46.8738,101.2163 C58.9638,101.3533 68.4818,91.9823 68.5528,79.8723 C68.6208,68.2553 58.8818,58.1493 47.3018,58.6193" id="Fill-21" fill="#FDFEFE" fill-rule="nonzero"></path>
            <path d="M112.6523,58.5861 C100.9913,58.7131 91.5403,68.4521 91.6553,80.2201 C91.7703,91.9041 101.3833,101.2351 113.2633,101.1931 C124.6793,101.1531 134.3233,91.5101 134.3193,80.1401 C134.3153,68.2391 124.4823,58.4581 112.6523,58.5861" id="Fill-23" fill="#FDFEFE" fill-rule="nonzero"></path>
            <path d="M175.9814,58.5333 C163.8784,58.5563 154.4794,68.0073 154.4814,80.1473 C154.4844,91.8353 164.0894,101.2673 175.9444,101.2233 C187.3324,101.1803 196.9594,91.6023 197.0774,80.1973 C197.1984,68.6383 187.3364,58.5123 175.9814,58.5333" id="Fill-25" fill="#FDFEFE" fill-rule="nonzero"></path>
        </g>
    </g>
</svg>
