
<svg width="143px" height="123px" viewBox="0 0 143 123" version="1.1" xmlns="http://www.w3.org/2000/svg" xmlns:xlink="http://www.w3.org/1999/xlink">
    <!-- Generator: Sketch 48.2 (47327) - http://www.bohemiancoding.com/sketch -->
    <desc>Created with Sketch.</desc>
    <defs>
        <polygon id="path-1" points="0 0 143 0 143 122.8689 0 122.8689"></polygon>
    </defs>
    <g id="Page-1" stroke="none" stroke-width="1" fill="none" fill-rule="evenodd">
        <g>
            <mask id="mask-2" fill="white">
                <use xlink:href="#path-1"></use>
            </mask>
            <g id="Clip-2"></g>
            <path d="M88.75,13.9999 L89.492,13.3299 L92.839,17.0339 L94.141,18.4739 L93.604,18.9589 L93.399,19.1439 L93.398,19.1449 L92.656,19.8149 L91.384,18.4069 L88.008,14.6699 L88.75,13.9999 Z M70.75,30.9999 C78.745,30.9999 85.25,37.5049 85.25,45.4999 C85.25,53.4949 78.745,59.9999 70.75,59.9999 C62.755,59.9999 56.25,53.4949 56.25,45.4999 C56.25,37.5049 62.755,30.9999 70.75,30.9999 Z M88.136,75.7879 L87.5,76.3809 L87.5,89.2499 L87.5,91.9999 L87.5,97.4999 L87.5,116.4999 L57.25,116.4999 L57.25,97.4999 L57.25,91.9999 L57.25,89.2499 L57.25,88.4609 L56.741,89.2499 L54.967,91.9999 L53.569,94.1659 C53.548,94.1979 52.637,95.6049 51.319,97.4999 C49.558,100.0309 47.068,103.4349 44.98,105.6179 C42.584,108.1239 38.371,111.2859 34.653,114.0759 C32.635,115.5909 30.729,117.0209 29.232,118.2539 C28.737,118.6619 28.166,118.8689 27.536,118.8689 L27.535,118.8689 C26.223,118.8689 24.79,117.9519 24.201,116.7369 C23.747,115.7999 23.871,114.8749 24.57,113.9889 C25.416,112.9179 27.554,110.6509 30.031,108.0259 C33.094,104.7799 36.767,100.8829 39.649,97.4999 C40.237,96.8109 40.803,96.1349 41.312,95.4989 C42.15,94.4499 43.003,93.2619 43.857,91.9999 C44.455,91.1169 45.053,90.1959 45.648,89.2499 C47.275,86.6649 48.879,83.9149 50.376,81.3419 C52.221,78.1729 53.963,75.1789 55.131,73.6219 C57.567,70.3729 62.385,66.4999 71.5,66.4999 C81.234,66.4999 87.855,62.5799 92.337,54.1629 C97.91,43.6989 96.922,31.6859 94.383,24.5769 C93.847,23.0739 93.878,21.7799 94.474,20.9349 C94.973,20.2279 95.869,19.8219 96.934,19.8219 C98.266,19.8219 99.674,20.4659 100.796,21.5869 C104.982,25.7739 107.402,44.2199 103.949,54.6199 C100.9,63.7989 88.263,75.6689 88.136,75.7879 Z M143,89.2499 L143,-0.0001 L0,-0.0001 L0,89.2499 L40.884,89.2499 C40.233,90.2279 39.588,91.1499 38.952,91.9999 L0,91.9999 L0,97.4999 L34.338,97.4999 C31.991,100.1199 29.384,102.8829 27.121,105.2809 C24.476,108.0859 22.385,110.3009 21.43,111.5109 C19.773,113.6089 19.472,116.1489 20.601,118.4809 C21.853,121.0639 24.704,122.8679 27.535,122.8689 L27.536,122.8689 C29.096,122.8689 30.562,122.3409 31.775,121.3419 C33.202,120.1669 35.073,118.7629 37.055,117.2749 C40.896,114.3929 45.249,111.1259 47.872,108.3819 C49.631,106.5419 51.599,103.9839 53.25,101.6979 L53.25,120.4999 L91.5,120.4999 L91.5,97.4999 L143,97.4999 L143,91.9999 L91.5,91.9999 L91.5,89.2499 L143,89.2499 Z" id="Fill-1" fill="#000000" mask="url(#mask-2)"></path>
        </g>
    </g>
</svg>
