
<svg width="143px" height="123px" viewBox="0 0 143 123" version="1.1" xmlns="http://www.w3.org/2000/svg" xmlns:xlink="http://www.w3.org/1999/xlink">
    <!-- Generator: Sketch 48.2 (47327) - http://www.bohemiancoding.com/sketch -->
    <desc>Created with Sketch.</desc>
    <defs>
        <polygon id="path-1" points="0 0.131 142.9997 0.131 142.9997 89.3805 0 89.3805"></polygon>
    </defs>
    <g id="Page-1" stroke="none" stroke-width="1" fill="none" fill-rule="evenodd">
        <g transform="translate(0.000000, -1.000000)">
            <path d="M70.75,31.9999 C78.745,31.9999 85.25,38.5049 85.25,46.4999 C85.25,54.4949 78.745,60.9999 70.75,60.9999 C62.755,60.9999 56.25,54.4949 56.25,46.4999 C56.25,38.5049 62.755,31.9999 70.75,31.9999 Z M87.5,98.4999 L87.5,117.4999 L57.25,117.4999 L57.25,98.4999 L57.25,92.9999 L57.25,90.2499 L57.25,89.4609 L56.741,90.2499 L54.967,92.9999 L53.569,95.1659 C53.548,95.1979 52.637,96.6049 51.319,98.4999 C49.558,101.0309 47.068,104.4349 44.98,106.6179 C42.584,109.1239 38.371,112.2859 34.653,115.0759 C32.635,116.5909 30.729,118.0209 29.232,119.2539 C28.737,119.6619 28.166,119.8689 27.536,119.8689 L27.535,119.8689 C26.223,119.8689 24.79,118.9519 24.201,117.7369 C23.747,116.7999 23.871,115.8749 24.57,114.9889 C25.416,113.9179 27.554,111.6509 30.031,109.0259 C33.094,105.7799 36.767,101.8829 39.649,98.4999 C40.237,97.8109 40.803,97.1349 41.312,96.4989 C42.15,95.4499 43.003,94.2619 43.857,92.9999 C44.455,92.1169 45.053,91.1959 45.648,90.2499 C47.275,87.6649 48.879,84.9149 50.376,82.3419 C52.221,79.1729 53.963,76.1789 55.131,74.6219 C57.567,71.3729 62.385,67.4999 71.5,67.4999 C81.234,67.4999 87.855,63.5799 92.337,55.1629 C97.91,44.6989 96.922,32.6859 94.383,25.5769 C93.847,24.0739 93.878,22.7799 94.474,21.9349 C94.973,21.2279 95.869,20.8219 96.934,20.8219 C98.266,20.8219 99.674,21.4659 100.796,22.5869 C104.982,26.7739 107.402,45.2199 103.949,55.6199 C100.9,64.7989 88.263,76.6689 88.136,76.7879 L87.5,77.3809 L87.5,90.2499 L87.5,92.9999 L87.5,98.4999 Z M91.5,92.9999 L91.5,90.2499 L91.5,79.1059 C94.235,76.4609 104.756,65.8769 107.745,56.8799 C111.436,45.7669 109.164,25.2979 103.624,19.7589 C101.73,17.8649 99.354,16.8219 96.934,16.8219 C95.397,16.8219 93.987,17.2529 92.839,18.0339 C92.562,18.2229 92.305,18.4359 92.061,18.6649 C91.817,18.8929 91.591,19.1409 91.384,19.4069 C91.326,19.4829 91.26,19.5519 91.205,19.6309 C89.838,21.5689 89.629,24.1589 90.617,26.9229 C92.881,33.2629 93.766,43.9709 88.807,53.2829 C85.853,58.8299 81.921,61.9549 76.401,63.0459 C83.282,60.6879 88.25,54.1699 88.25,46.4999 C88.25,36.8509 80.399,28.9999 70.75,28.9999 C61.101,28.9999 53.25,36.8509 53.25,46.4999 C53.25,55.1009 59.492,62.2549 67.68,63.7129 C59.319,64.6779 54.541,68.7419 51.931,72.2219 C50.623,73.9659 48.907,76.9149 46.919,80.3299 C45.012,83.6079 42.929,87.1769 40.884,90.2499 C40.233,91.2279 39.588,92.1499 38.952,92.9999 L0,92.9999 L0,98.4999 L34.338,98.4999 C31.991,101.1199 29.384,103.8829 27.121,106.2809 C24.476,109.0859 22.385,111.3009 21.43,112.5109 C19.773,114.6089 19.472,117.1489 20.601,119.4809 C21.853,122.0639 24.704,123.8679 27.535,123.8689 L27.536,123.8689 C29.096,123.8689 30.562,123.3409 31.775,122.3419 C33.202,121.1669 35.073,119.7629 37.055,118.2749 C40.896,115.3929 45.249,112.1259 47.872,109.3819 C49.631,107.5419 51.599,104.9839 53.25,102.6979 L53.25,121.4999 L91.5,121.4999 L91.5,98.4999 L143,98.4999 L143,92.9999 L91.5,92.9999 Z" id="Fill-1" fill="#000000"></path>
            <g id="Group-5" transform="translate(0.000000, 0.869000)">
                <mask id="mask-2" fill="white">
                    <use xlink:href="#path-1"></use>
                </mask>
                <g id="Clip-4"></g>
                <path d="M51.9307,71.3525 C54.5407,67.8735 59.3187,63.8085 67.6797,62.8435 C59.4917,61.3865 53.2497,54.2315 53.2497,45.6305 C53.2497,35.9815 61.1007,28.1305 70.7497,28.1305 C80.3997,28.1305 88.2497,35.9815 88.2497,45.6305 C88.2497,53.3005 83.2827,59.8195 76.4007,62.1765 C81.9217,61.0855 85.8527,57.9605 88.8067,52.4145 C93.7657,43.1025 92.8807,32.3945 90.6167,26.0535 C89.6297,23.2895 89.8387,20.7005 91.2047,18.7615 C91.2607,18.6835 91.3257,18.6145 91.3847,18.5385 L88.0077,14.8015 L88.7497,14.1305 L89.4927,13.4605 L92.8397,17.1645 C93.9877,16.3845 95.3977,15.9535 96.9337,15.9535 C99.3537,15.9535 101.7307,16.9965 103.6237,18.8905 C109.1637,24.4295 111.4357,44.8975 107.7447,56.0115 C104.7567,65.0075 94.2347,75.5915 91.4997,78.2375 L91.4997,89.3805 L142.9997,89.3805 L142.9997,0.1305 L-0.0003,0.1305 L-0.0003,89.3805 L40.8837,89.3805 C42.9287,86.3075 45.0117,82.7395 46.9197,79.4605 C48.9067,76.0455 50.6227,73.0965 51.9307,71.3525" id="Fill-3" fill="#044F36" mask="url(#mask-2)"></path>
            </g>
        </g>
    </g>
</svg>
