
<svg width="615px" height="208px" viewBox="0 0 615 208" version="1.1" xmlns="http://www.w3.org/2000/svg" xmlns:xlink="http://www.w3.org/1999/xlink">
    <!-- Generator: Sketch 48.2 (47327) - http://www.bohemiancoding.com/sketch -->
    <desc>Created with Sketch.</desc>
    <defs>
        <polygon id="path-1" points="0 8.37995763e-05 185.073 8.37995763e-05 185.073 207.524 0 207.524"></polygon>
    </defs>
    <g id="Page-1" stroke="none" stroke-width="1" fill="none" fill-rule="evenodd">
        <g id="thinktreeLogo">
            <path d="M1.9873,10.9449 C12.6453,43.7369 77.4113,59.3139 106.9253,57.6739 C129.8803,56.0339 143.8173,46.1959 159.3933,30.6209 C167.5923,22.4219 181.5283,14.2229 183.1693,1.9249 L1.9873,10.9449 Z" id="Fill-1" fill="#06776C"></path>
            <polygon id="Path" fill="#06776C" points="426 94 425.941 145.517 461.072 145.52 461.072 161.083 408.23 161.083 408.059 94.044"></polygon>
            <polygon id="Path" fill="#06776C" points="346.8136 207.2502 346.8136 170.7302 311.6826 170.7302 311.6826 155.1692 364.5226 155.1692 364.7546 207.2092"></polygon>
            <polygon id="Path" fill="#06776C" points="315.7166 140.6602 315.7166 104.1412 280.5866 104.1392 280.5866 88.5772 333.4266 88.5772 333.6576 140.6162"></polygon>
            <polygon id="Path" fill="#06776C" points="195.6676 140.3372 169.8456 114.5162 145.0036 139.3552 133.9996 128.3512 171.3616 90.9882 208.3216 127.6222"></polygon>
            <polygon id="Path" fill="#06776C" points="365.1966 124.2422 365.1966 147.5882 347.6886 147.5882 347.6886 84.0362 365.1966 84.0362 365.1966 108.6792 382.7036 108.6792 382.7036 124.2422"></polygon>
            <polygon id="Path" fill="#06776C" points="484.5085 137.563 484.5085 208 467.0005 208 466.99975 86 484.50775 86 484.5085 122 502.0155 122 502.0155 137.563"></polygon>
            <polygon id="Path" fill="#06776C" points="557.698 205.951 557.698 167.692 520.316 167.692 520.316 152.129 614.535 152.129 614.535 167.692 575.856 167.692 575.856 205.951"></polygon>
            <path d="M537.437,139.807 L537.437,88.577 L594.227,88.577 L594.227,139.807 L537.437,139.807 Z M554.944,124.243 L576.716,124.243 L576.716,104.142 L554.944,104.142 L554.944,124.243 Z" id="Combined-Shape" fill="#06776C"></path>
            <polygon id="Path" fill="#06776C" points="250.4072 148.8878 234.1972 148.8878 234.1972 122.9448 226.4152 122.9448 226.4152 143.7008 210.2002 143.7008 210.2002 85.3348 226.4152 85.3348 226.4152 107.3838 234.1972 107.3838 234.1972 84.0358 250.4072 84.0358"></polygon>
            <path d="M245.8692,178.8468 C245.8692,187.5378 242.6242,194.4088 236.4012,199.5968 C229.9152,204.6558 222.0052,207.2498 212.6682,207.2498 C203.3292,207.2498 195.5462,204.6558 189.3202,199.5968 C182.8362,194.4088 179.7232,187.5378 179.7232,178.8468 C179.7232,170.0268 182.8362,163.0238 189.3202,157.8358 C195.5462,152.7778 203.3292,150.1858 212.6682,150.1858 C222.0052,150.1858 229.9152,152.7778 236.4012,157.8358 C242.6242,163.0238 245.8692,170.0268 245.8692,178.8468 Z M228.3592,178.8468 C228.3592,174.6988 226.8022,171.4528 223.8172,169.1198 C220.7092,166.9148 216.9472,165.7458 212.7952,165.7458 C208.5152,165.7458 204.8842,166.9148 201.9042,169.1198 C198.7882,171.4528 197.2302,174.6988 197.2302,178.8468 C197.2302,182.9948 198.7882,186.1108 201.9042,188.3158 C204.8842,190.6488 208.5152,191.6848 212.7952,191.6848 C216.9472,191.6848 220.7092,190.6488 223.8172,188.3158 C226.8022,186.1108 228.3592,182.9948 228.3592,178.8468 Z" id="Combined-Shape" fill="#06776C"></path>
            <mask id="mask-2" fill="white">
                <use xlink:href="#path-1"></use>
            </mask>
            <g id="Clip-8"></g>
            <path d="M90.5293,28.9801 C88.8893,51.9351 87.7993,81.4161 91.0783,103.5511 C96.0573,99.8031 101.1853,92.1081 106.1053,88.8281 C106.9373,89.2491 107.6723,90.5921 108.4283,91.4861 C108.4283,91.4861 105.7103,96.6581 104.2633,99.0081 C102.7243,101.5131 101.1883,103.5781 99.7763,106.4031 C96.5003,112.9651 93.0163,119.7511 92.1683,126.5391 C88.8893,148.6751 92.9883,170.8101 89.7093,192.9481 L90.5293,28.9801 Z" id="Fill-3" fill="#06776C" mask="url(#mask-2)"></path>
            <path d="M79.8701,27.3404 C79.0501,63.4124 83.1491,100.3054 81.5121,136.3784 C80.6891,155.2344 81.5121,189.6664 70.0311,204.4234 L79.8701,27.3404 Z" id="Fill-5" fill="#06776C" mask="url(#mask-2)"></path>
            <path d="M181.2939,1.4097 C179.7629,10.8487 171.8409,17.1797 164.9629,23.0327 C157.7709,29.1527 151.3889,36.1417 143.8569,41.8697 C130.0109,52.3987 113.6329,56.5837 96.4169,55.6697 C94.7019,55.5787 92.9869,55.4507 91.2749,55.2967 L91.1559,51.0857 C91.4799,43.6847 91.9549,36.3047 92.4729,28.9797 C92.6479,26.4777 88.7609,26.4937 88.5849,28.9797 C87.9799,37.5607 87.4459,46.2047 87.1469,54.8637 C85.4049,54.6567 83.6669,54.4237 81.9329,54.1557 C81.7179,45.2207 81.6279,36.2827 81.8139,27.3407 C81.8649,24.8327 77.9789,24.8377 77.9259,27.3407 C77.7449,36.0657 77.8359,44.7877 78.0559,53.5087 C69.2039,51.9257 60.4629,49.6157 51.9899,46.7857 C37.6999,42.0137 23.1259,35.2007 12.5089,24.2427 C8.6919,20.3047 5.6219,15.6357 3.8599,10.4277 C3.0619,8.0657 -0.6921,9.0787 0.1119,11.4607 C4.4089,24.1727 15.1529,33.0987 26.3909,39.6767 C39.8589,47.5597 55.1059,52.5117 70.2839,55.8577 C72.8849,56.4307 75.5169,56.9667 78.1689,57.4467 C78.9119,82.7537 80.5689,108.0467 79.6909,133.3687 C79.2759,145.3207 79.1239,157.3067 78.0869,169.2247 C77.0869,180.7157 75.4989,193.9427 68.3549,203.4427 C66.8459,205.4487 70.2239,207.3817 71.7099,205.4057 C75.1379,200.8457 76.2289,199.1127 77.6849,193.5287 C77.6849,193.5287 81.7279,203.3447 82.7279,205.7507 C83.7279,208.1567 86.6649,206.8777 86.1029,204.4237 C85.5399,201.9697 84.6979,194.4777 83.7279,185.1257 C82.7569,175.7727 82.6329,159.8307 82.6329,159.8307 C83.0149,152.2877 83.1279,144.7267 83.4209,137.1837 C84.2159,116.7647 83.3889,96.3757 82.6329,75.9837 L82.6329,58.1947 C84.0939,58.4207 85.5589,58.6227 87.0279,58.8057 C86.6379,73.9537 87.0529,89.1237 89.2039,104.0667 C89.4369,105.6837 91.4639,105.7087 92.4519,104.9247 C97.4479,100.9607 100.9529,95.3787 105.9109,91.4017 C105.9809,91.4867 106.0499,91.5757 106.1199,91.6617 C103.5599,96.3227 100.5639,100.7227 98.0989,105.4227 C93.7539,113.7067 90.6989,121.7467 89.6509,131.0677 C87.3589,151.4617 90.9059,184.0537 88.0399,204.4237 C87.6949,206.8727 92.1879,207.4747 92.5359,205.0007 C93.3189,199.4317 94.2039,193.4127 94.4779,187.7507 C94.4779,187.7507 99.8229,203.9637 100.4869,205.9477 C101.4459,208.8127 105.3529,207.2507 104.8939,205.3757 C104.2599,202.7877 99.0859,186.1787 96.7279,171.0417 C94.3689,155.9047 93.4309,131.8077 93.4309,131.8077 C93.7159,128.8357 94.1439,125.8727 94.8449,122.9837 C96.0629,117.9737 98.5129,113.2887 100.7979,108.6987 C103.5759,103.1207 107.1949,97.9927 110.1059,92.4687 C110.4029,91.9057 110.5289,91.0537 110.1059,90.5057 C109.1479,89.2607 108.3369,88.1107 107.0869,87.1487 C106.5889,86.7667 105.6249,86.7917 105.1249,87.1487 C100.2519,90.6247 96.7619,95.5477 92.5119,99.6837 C92.4679,99.3337 92.1049,93.2077 92.0629,92.8577 L91.2279,77.3757 L91.3889,59.2767 C98.2379,59.8977 105.1219,59.9537 111.8819,59.1197 C130.2929,56.8477 145.0739,47.1467 158.1849,34.5367 C163.4219,29.5007 169.0229,24.9117 174.3219,19.9477 C179.3979,15.1917 183.9019,9.4717 185.0439,2.4427 C185.4399,-0.0093 181.6949,-1.0603 181.2939,1.4097" id="Fill-7" fill="#231F20" mask="url(#mask-2)"></path>
        </g>
    </g>
</svg>
